<?xml version="1.0" encoding="utf-8"?>
<!-- Generator: Adobe Illustrator 15.1.0, SVG Export Plug-In . SVG Version: 6.00 Build 0)  -->
<!DOCTYPE svg PUBLIC "-//W3C//DTD SVG 1.1//EN" "http://www.w3.org/Graphics/SVG/1.1/DTD/svg11.dtd">
<svg version="1.1" id="Layer_1" xmlns="http://www.w3.org/2000/svg" xmlns:xlink="http://www.w3.org/1999/xlink" x="0px" y="0px"
	 width="400px" height="447px" viewBox="0 0 400 447" enable-background="new 0 0 400 447" xml:space="preserve">
<path fill="#60302C" d="M147.556,443.215l37.079-169.664h23.595l35.955,169.664C244.186,443.215,184.635,449.955,147.556,443.215z"
	/>
<g>
	<polygon fill="#FFCA32" stroke="#60302C" stroke-width="10" points="197.545,182.996 235.146,128.108 233.307,194.616 
		295.99,172.314 255.41,225.037 319.232,243.84 255.41,262.643 295.99,315.365 233.307,293.063 235.146,359.572 197.545,304.686 
		159.94,359.572 161.78,293.063 99.097,315.365 139.678,262.643 75.856,243.84 139.678,225.037 99.097,172.314 161.78,194.616 
		159.94,128.108 	"/>
	<circle fill="none" stroke="#F15A37" stroke-width="10" cx="197.544" cy="243.84" r="138.202"/>
	<circle fill="none" stroke="#FCC731" stroke-width="10" cx="197.544" cy="243.84" r="100.001"/>
	<circle fill="none" stroke="#FCC731" stroke-width="10" cx="197.544" cy="243.84" r="56.54"/>
	<circle fill="#F79034" stroke="#000000" stroke-width="2" cx="238.422" cy="108.213" r="37.033"/>
	<circle fill="#FFC92F" stroke="#000000" stroke-width="2" cx="156.702" cy="106.213" r="37.034"/>
	<circle fill="#F15937" stroke="#000000" stroke-width="2" cx="312.489" cy="150.58" r="37.034"/>
	<circle fill="#F15937" stroke="#000000" stroke-width="2" cx="85.635" cy="163.142" r="37.034"/>
	<circle fill="#F79034" stroke="#000000" stroke-width="2" cx="59.341" cy="242.18" r="37.034"/>
	<circle fill="#FFC92F" stroke="#000000" stroke-width="2" cx="84.837" cy="326.898" r="37.034"/>
	<circle fill="#F15937" stroke="#000000" stroke-width="2" cx="154.579" cy="371.49" r="37.033"/>
	<circle fill="#F79034" stroke="#000000" stroke-width="2" cx="238.422" cy="377.303" r="37.033"/>
	<circle fill="#FFC92F" stroke="#000000" stroke-width="2" cx="312.489" cy="324.539" r="37.034"/>
	<circle fill="#F79034" stroke="#000000" stroke-width="2" cx="338.746" cy="242.473" r="37.033"/>
</g>
</svg>
